<svg width="68" height="68" viewBox="0 0 68 68" fill="none" xmlns="http://www.w3.org/2000/svg">
<circle cx="34" cy="34" r="34" fill="#E90064"/>
<path fill-rule="evenodd" clip-rule="evenodd" d="M24.1302 20.1502C25.3647 18.9063 26.8331 17.9189 28.4508 17.2448C30.0684 16.5707 31.8034 16.2232 33.5559 16.2223C37.0894 16.2223 40.4806 17.6334 42.9817 20.1502C45.4867 22.6737 46.8915 26.0858 46.8896 29.6415C46.8896 35.7817 43.4851 41.3396 39.9383 45.443C38.4437 47.1639 36.8233 48.7713 35.0904 50.252C34.5894 50.6818 34.0778 51.0989 33.5559 51.5032C33.0344 51.0986 32.5227 50.6815 32.0215 50.252C30.2886 48.7713 28.6682 47.1639 27.1736 45.443C23.6268 41.3396 20.2223 35.7817 20.2223 29.6415C20.2223 26.0803 21.629 22.6669 24.1302 20.1502ZM32.9159 53.7977L33.5559 52.8899L34.196 53.7977C34.0085 53.9293 33.785 54 33.5559 54C33.3269 54 33.1034 53.9293 32.9159 53.7977ZM32.9159 53.7977L33.5559 52.8899L34.196 53.7977L34.2004 53.7954L34.2115 53.7877L34.2449 53.7621L34.376 53.6677C34.4871 53.5854 34.6493 53.4654 34.8538 53.3076C35.2627 52.9943 35.8427 52.5332 36.5349 51.9409C38.3521 50.3877 40.0512 48.7016 41.6184 46.8964C45.294 42.6452 49.1119 36.5772 49.1119 29.6404C49.1119 25.4958 47.4741 21.518 44.5584 18.5846C43.1173 17.1327 41.4033 15.9803 39.5151 15.1934C37.6268 14.4066 35.6016 14.001 33.5559 14C31.5104 14.0009 29.4852 14.4063 27.597 15.1929C25.7087 15.9795 23.9947 17.1318 22.5534 18.5834C19.635 21.5236 17.998 25.4988 18 29.6415C18 36.5772 21.8179 42.6452 25.4935 46.8964C27.0606 48.7016 28.7598 50.3877 30.577 51.9409C31.2703 52.5332 31.8492 52.9943 32.2581 53.3076C32.4587 53.4622 32.6613 53.6141 32.8659 53.7632L32.9015 53.7877L32.9115 53.7954L32.9159 53.7977ZM29.1114 29.5559C29.1114 28.3772 29.5797 27.2467 30.4132 26.4132C31.2467 25.5797 32.3772 25.1114 33.5559 25.1114C34.7347 25.1114 35.8652 25.5797 36.6987 26.4132C37.5322 27.2467 38.0005 28.3772 38.0005 29.5559C38.0005 30.7347 37.5322 31.8652 36.6987 32.6987C35.8652 33.5322 34.7347 34.0005 33.5559 34.0005C32.3772 34.0005 31.2467 33.5322 30.4132 32.6987C29.5797 31.8652 29.1114 30.7347 29.1114 29.5559ZM33.5559 22.8891C31.7878 22.8891 30.0921 23.5915 28.8418 24.8418C27.5915 26.0921 26.8891 27.7878 26.8891 29.5559C26.8891 31.3241 27.5915 33.0198 28.8418 34.2701C30.0921 35.5204 31.7878 36.2228 33.5559 36.2228C35.3241 36.2228 37.0198 35.5204 38.2701 34.2701C39.5204 33.0198 40.2228 31.3241 40.2228 29.5559C40.2228 27.7878 39.5204 26.0921 38.2701 24.8418C37.0198 23.5915 35.3241 22.8891 33.5559 22.8891Z" fill="white"/>
</svg>
