<svg width="68" height="68" viewBox="0 0 68 68" fill="none" xmlns="http://www.w3.org/2000/svg">
<circle cx="34" cy="34" r="34" fill="#E90064"/>
<path d="M48.9673 18H19.0327C17.698 18 16.4179 18.5302 15.474 19.474C14.5302 20.4179 14 21.698 14 23.0327V44.9149C14 46.2497 14.5302 47.5298 15.474 48.4736C16.4179 49.4174 17.698 49.9477 19.0327 49.9477H48.9673C50.302 49.9477 51.5821 49.4174 52.526 48.4736C53.4698 47.5298 54 46.2497 54 44.9149V23.0327C54 21.698 53.4698 20.4179 52.526 19.474C51.5821 18.5302 50.302 18 48.9673 18ZM19.0327 20.0131H48.9673C49.7293 20.0109 50.4635 20.299 51.0206 20.8187C51.5778 21.3385 51.9161 22.051 51.9668 22.8113C46.9945 25.4685 42.002 28.1057 37.0096 30.763C36.3341 31.1862 35.6196 31.5435 34.8757 31.8299C34.2917 31.9451 33.6899 31.9347 33.1102 31.7994C32.5306 31.664 31.9864 31.4068 31.5138 31.0448C28.6553 29.535 25.7967 28.005 22.9582 26.4952C20.6633 25.2874 18.3281 24.0594 16.0332 22.8314C16.0799 22.0679 16.4164 21.351 16.9738 20.8272C17.5313 20.3034 18.2678 20.0122 19.0327 20.0131ZM51.9869 44.9149C51.9869 45.7158 51.6688 46.4839 51.1025 47.0501C50.5362 47.6164 49.7681 47.9346 48.9673 47.9346H19.0327C18.2319 47.9346 17.4638 47.6164 16.8975 47.0501C16.3312 46.4839 16.0131 45.7158 16.0131 44.9149V25.1163C20.764 27.6125 25.4947 30.149 30.2456 32.6653C31.0944 33.1857 32.0082 33.5919 32.9633 33.8732C34.3611 34.1004 35.7938 33.8068 36.9894 33.0478C39.9084 31.5179 42.8072 29.9678 45.7262 28.4378C47.8198 27.3105 49.8933 26.2235 51.9869 25.1163V44.9149Z" fill="white"/>
</svg>
