<svg width="68" height="68" viewBox="0 0 68 68" fill="none" xmlns="http://www.w3.org/2000/svg">
<circle cx="34" cy="34" r="34" fill="#E90064"/>
<path d="M38.5309 16.5393C38.5724 16.3838 38.6441 16.238 38.7419 16.1102C38.8398 15.9824 38.9619 15.8752 39.1012 15.7947C39.2405 15.7141 39.3943 15.6618 39.5538 15.6407C39.7134 15.6197 39.8755 15.6303 40.031 15.6719C42.9885 16.4434 45.6869 17.9894 47.8482 20.1507C50.0095 22.312 51.5556 25.0104 52.327 27.968C52.3687 28.1234 52.3793 28.2856 52.3582 28.4451C52.3371 28.6046 52.2848 28.7585 52.2043 28.8978C52.1237 29.0371 52.0165 29.1592 51.8887 29.257C51.761 29.3548 51.6152 29.4265 51.4597 29.468C51.3565 29.4955 51.2501 29.5092 51.1433 29.5088C50.8736 29.509 50.6113 29.42 50.3972 29.2558C50.1832 29.0916 50.0294 28.8613 49.9597 28.6006C49.2973 26.0602 47.9695 23.7423 46.1131 21.8859C44.2567 20.0294 41.9388 18.7016 39.3983 18.0393C39.2428 17.9978 39.097 17.9261 38.9692 17.8283C38.8415 17.7304 38.7343 17.6084 38.6537 17.4691C38.5731 17.3298 38.5208 17.1759 38.4998 17.0164C38.4787 16.8568 38.4893 16.6947 38.5309 16.5393ZM37.7656 24.57C40.7351 25.3618 42.6371 27.2639 43.429 30.2333C43.4987 30.494 43.6525 30.7243 43.8665 30.8885C44.0806 31.0527 44.3429 31.1417 44.6127 31.1415C44.7194 31.1419 44.8258 31.1282 44.929 31.1007C45.0845 31.0592 45.2303 30.9875 45.358 30.8897C45.4858 30.7918 45.593 30.6698 45.6736 30.5305C45.7541 30.3911 45.8064 30.2373 45.8275 30.0778C45.8486 29.9182 45.838 29.7561 45.7963 29.6007C44.7759 25.7822 42.2167 23.223 38.3983 22.2026C38.2428 22.1611 38.0807 22.1505 37.9212 22.1717C37.7617 22.1928 37.6079 22.2451 37.4686 22.3256C37.1873 22.4883 36.9822 22.756 36.8983 23.07C36.8144 23.3839 36.8586 23.7183 37.0213 23.9996C37.1839 24.2809 37.4517 24.4861 37.7656 24.57ZM53.9781 44.3662C53.6284 47.034 52.3192 49.4832 50.2951 51.256C48.271 53.0288 45.6706 54.0039 42.98 53.9989C27.0002 53.9989 14 40.9988 14 25.019C13.9949 22.3292 14.9691 19.7296 16.7406 17.7056C18.5122 15.6817 20.9599 14.3719 23.6267 14.0209C24.2406 13.9463 24.8621 14.0728 25.3979 14.3816C25.9337 14.6904 26.3549 15.1646 26.5981 15.7331L30.9043 25.3455C31.0944 25.7807 31.1731 26.2564 31.1332 26.7296C31.0933 27.2028 30.9361 27.6586 30.6757 28.0557C30.6495 28.0962 30.6209 28.135 30.59 28.1721L26.29 33.2864C26.2639 33.3394 26.2503 33.3977 26.2503 33.4568C26.2503 33.5159 26.2639 33.5742 26.29 33.6272C27.8533 36.8273 31.2084 40.1579 34.4533 41.7192C34.5075 41.7439 34.5667 41.7556 34.6262 41.7535C34.6857 41.7514 34.7439 41.7354 34.7962 41.7069L39.835 37.4212C39.871 37.3899 39.9092 37.3612 39.9493 37.3355C40.3447 37.0718 40.7997 36.911 41.2729 36.8675C41.7461 36.824 42.2227 36.8993 42.6596 37.0865L52.3005 41.4069C52.8615 41.6556 53.3275 42.0782 53.6296 42.6122C53.9318 43.1463 54.0539 43.7634 53.9781 44.3723V44.3662ZM51.5515 44.0641C51.5584 43.9788 51.5382 43.8934 51.4939 43.8202C51.4496 43.7469 51.3833 43.6895 51.3046 43.6559L41.6616 39.3355C41.6089 39.3151 41.5525 39.3064 41.4961 39.31C41.4397 39.3135 41.3848 39.3292 41.3351 39.3559L36.2983 43.6417C36.2615 43.6723 36.2227 43.7008 36.184 43.7274C35.7731 44.0013 35.2983 44.1641 34.8058 44.1999C34.3132 44.2357 33.8199 44.1432 33.3737 43.9315C29.6267 42.1212 25.892 38.4212 24.0818 34.7089C23.8689 34.2654 23.7741 33.7744 23.8066 33.2835C23.8392 32.7925 23.9979 32.3184 24.2675 31.9068C24.2938 31.8659 24.3231 31.827 24.3553 31.7905L28.6533 26.6761C28.6778 26.6227 28.6905 26.5645 28.6905 26.5057C28.6905 26.4469 28.6778 26.3888 28.6533 26.3353L24.3553 16.7148C24.3269 16.6376 24.2759 16.5707 24.2088 16.523C24.1418 16.4753 24.062 16.449 23.9797 16.4474H23.9328C21.8571 16.7235 19.9529 17.7457 18.5758 19.323C17.1986 20.9004 16.4426 22.925 16.449 25.019C16.449 39.6477 28.3512 51.5499 42.98 51.5499C45.0742 51.5562 47.0991 50.8 48.6765 49.4224C50.2539 48.0448 51.2759 46.1401 51.5515 44.0641Z" fill="white"/>
</svg>
